<svg xmlns="http://www.w3.org/2000/svg" width="420" height="280" viewBox="0 0 420 280">
  <path fill="#176f43" d="M24 207C-8 176 16 126 62 129 47 83 96 48 136 74c10-55 78-70 111-27 33-35 92-15 93 32 57-9 82 61 41 94 39 38 8 99-45 91H67c-41 0-63-29-43-57z"/>
  <g fill="#39a94f"><circle cx="72" cy="153" r="55"/><circle cx="140" cy="112" r="61"/><circle cx="214" cy="92" r="65"/><circle cx="291" cy="120" r="64"/><circle cx="348" cy="164" r="54"/></g>
  <g fill="#78d73f"><circle cx="94" cy="114" r="32"/><circle cx="170" cy="72" r="38"/><circle cx="251" cy="65" r="35"/><circle cx="318" cy="108" r="31"/></g>
  <path fill="#9ce84b" d="M61 97c20-23 47-27 64-13-28 1-44 13-55 34zM213 42c25-14 52-7 62 10-25-9-43-3-59 12z"/>
</svg>
