<svg xmlns="http://www.w3.org/2000/svg" width="80" height="80" viewBox="0 0 80 80">
  <path fill="#4a4a5a" stroke="#17294a" stroke-width="6" stroke-linejoin="round" d="M40 6c20 0 32 14 32 32s-12 36-32 36S8 56 8 38 20 6 40 6z"/>
  <path fill="#6a6a7a" d="M40 10c18 0 28 12 28 28s-10 32-28 32S12 54 12 38 22 10 40 10z"/>
  <g fill="#8a8a9a"><path d="M22 22c8-6 18-6 26 0l-4 6c-6-4-12-4-18 0z"/><path d="M58 54c-8 6-18 6-26 0l4-6c6 4 12 4 18 0z"/></g>
  <circle cx="30" cy="30" r="5" fill="#a5a5b5" opacity=".6"/>
  <circle cx="50" cy="45" r="4" fill="#a5a5b5" opacity=".5"/>
</svg>
